<svg viewBox="0 0 26 27" xmlns="http://www.w3.org/2000/svg">
  <g stroke="none" fill="currentColor">
    <path d="M13,26 C5.82029825,26 0,20.1797017 0,13 C0,5.82029825 5.82029825,0 13,0 C20.1797017,0 26,5.82029825 26,13 C26,20.1797017 20.1797017,26 13,26 Z M13,25.2121212 C19.7445683,25.2121212 25.2121212,19.7445683 25.2121212,13 C25.2121212,6.25543169 19.7445683,0.787878788 13,0.787878788 C6.25543169,0.787878788 0.787878788,6.25543169 0.787878788,13 C0.787878788,19.7445683 6.25543169,25.2121212 13,25.2121212 Z M22.6751919,21.3205403 C21.7200566,20.5257727 20.3356534,20.1445451 19.111609,19.7604734 C18.4374841,19.5489514 17.8076962,19.3537774 17.3767068,19.1537807 C16.9457173,18.9537531 16.804859,18.7405209 16.8140358,18.778209 L16.6077231,17.9403953 C17.7056139,17.1244764 18.4678377,16.0566202 18.9052963,14.733591 C19.3911364,13.2642159 19.5336122,11.5137669 19.5336122,9.37928713 C19.5336122,7.71713865 18.6056939,6.36870461 17.3860846,5.48874981 C16.1664753,4.60879501 14.6431422,4.1405438 13.2316971,4.1405438 C11.8202521,4.1405438 10.296919,4.60879501 9.07730966,5.48874981 C7.85770034,6.36870461 6.92978205,7.71713865 6.92978205,9.37928713 C6.92978205,11.5137669 7.07225785,13.2642159 7.55809799,14.733591 C7.99555653,16.0566202 8.75778036,17.1244764 9.8556712,17.9403953 L9.6493585,18.778209 C9.65853529,18.7405209 9.51767698,18.9537531 9.08668751,19.1537807 C8.65569804,19.3537774 8.02591015,19.5489514 7.35178529,19.7604734 C6.12774092,20.1445451 4.74333771,20.5257727 3.78820236,21.3205403 C4.20917328,22.4377264 7.55809799,26.2027378 13.2316971,26.3043801 C18.9052963,26.4060223 22.3164578,22.2063351 22.6751919,21.3205403 Z M13.2316979,5.16516096 C14.4028153,5.16516096 15.7610639,5.58585673 16.7786432,6.32004648 C17.7962226,7.05423623 18.4607989,8.04372161 18.4607989,9.27142059 C18.4607989,11.3975944 18.2992427,13.0701372 17.8744475,14.354891 C17.4496522,15.6396133 16.7927464,16.5384104 15.6732266,17.2569111 C15.4469232,17.4027819 15.3381729,17.6819692 15.4040817,17.9478682 L15.7116759,19.2113327 C15.8748792,19.8816954 16.422586,20.1763669 16.9805019,20.435314 C17.5384177,20.6942294 18.2001589,20.9087657 18.8933532,21.1262711 C20.1137349,21.5092215 21.3203224,21.864956 22.0001378,22.3640276 C19.7631373,24.7475177 16.7150226,26.3281914 13.2316979,26.3281914 C9.74837319,26.3281914 6.69745674,24.7475177 4.46045627,22.3640276 C5.14027169,21.864956 6.34966088,21.5092215 7.57004262,21.1262711 C8.26323685,20.9087657 8.92497804,20.6942294 9.48289389,20.435314 C10.0408097,20.1763669 10.5885165,19.8816954 10.7517199,19.2113327 L11.059314,17.9478682 C11.1252229,17.6819692 11.0164725,17.4027819 10.7901691,17.2569111 C9.67064937,16.5384104 9.01374356,15.6396133 8.58894832,14.354891 C8.16415307,13.0701372 8.00259692,11.3975944 8.00259692,9.27142059 C8.00259692,8.04372161 8.66717321,7.05423623 9.68475256,6.32004648 C10.7023319,5.58585673 12.0605804,5.16516096 13.2316979,5.16516096 Z" />
  </g>
</svg>
