<svg viewBox="0 0 14 10" xmlns="http://www.w3.org/2000/svg">
  <g stroke="none" fill="currentColor" transform="translate(0, -46)">
    <path
      d="M12.8359375,47.890625 C12.9817716,48.0364591 13.0546875,48.2135406 13.0546875,48.421875 C13.0546875,48.6302094 12.9817716,48.8072909 12.8359375,48.953125 L6.1171875,55.671875 C5.97135344,55.8177091 5.79427187,55.890625 5.5859375,55.890625 C5.37760313,55.890625 5.20052156,55.8177091 5.0546875,55.671875 L1.1640625,51.78125 C1.01822844,51.6354159 0.9453125,51.4583344 0.9453125,51.25 C0.9453125,51.0416656 1.01822844,50.8645841 1.1640625,50.71875 L2.2265625,49.65625 C2.37239656,49.5104159 2.54947813,49.4375 2.7578125,49.4375 C2.96614687,49.4375 3.14322844,49.5104159 3.2890625,49.65625 L5.5859375,51.9609375 L10.7109375,46.828125 C10.8567716,46.6822909 11.0338531,46.609375 11.2421875,46.609375 C11.4505219,46.609375 11.6276034,46.6822909 11.7734375,46.828125 L12.8359375,47.890625 Z"
    />
  </g>
</svg>
