<svg version="1.1" xmlns="http://www.w3.org/2000/svg" viewBox="0 0 640 640">
  <path fill="currentColor"
        d="M320 12.8c-169.664 0-307.2 137.536-307.2 307.2s137.536 307.2 307.2 307.2c169.632 0 307.2-137.536 307.2-307.232 0-169.632-137.568-307.168-307.2-307.168zM315.168 499.168h-1.632c-25.024-0.736-42.688-19.2-41.952-43.872 0.704-24.256 18.784-41.888 42.976-41.888l1.472 0.064c25.728 0.736 43.2 19.008 42.464 44.384-0.736 24.32-18.496 41.312-43.328 41.312zM420.48 290.176c-5.888 8.32-18.816 18.752-35.136 31.456l-17.984 12.384c-9.856 7.68-15.808 14.944-18.016 22.016-1.792 5.568-2.624 7.072-2.784 18.432v2.88h-68.64l0.192-5.824c0.864-23.808 1.44-37.888 11.328-49.504 15.52-18.176 49.76-40.256 51.2-41.184 4.928-3.68 9.056-7.872 12.128-12.384 7.2-9.952 10.368-17.76 10.368-25.376 0-10.688-3.136-20.576-9.376-29.312-6.016-8.512-17.44-12.736-33.952-12.736-16.384 0-27.616 5.184-34.304 15.872-6.912 10.912-10.4 22.4-10.4 34.144v2.944h-70.752l0.128-3.072c1.824-43.296 17.312-74.496 45.92-92.704 18.016-11.552 40.448-17.408 66.592-17.408 34.176 0 63.104 8.32 85.824 24.704 23.072 16.608 34.752 41.504 34.752 73.952-0.032 18.144-5.76 35.2-17.088 50.72z"></path>
</svg>
