<svg viewBox="0 0 16 17" xmlns="http://www.w3.org/2000/svg">
  <g stroke="none" fill="currentColor" transform="translate(-15, -11)">
    <path
      d="M25.1037946,21.3895089 C25.6060293,20.8872743 25.8571429,20.2812535 25.8571429,19.5714286 C25.8571429,18.8616036 25.6060293,18.2555829 25.1037946,17.7533482 C24.60156,17.2511136 23.9955393,17 23.2857143,17 C22.5758893,17 21.9698686,17.2511136 21.4676339,17.7533482 C20.9653993,18.2555829 20.7142857,18.8616036 20.7142857,19.5714286 C20.7142857,20.2812535 20.9653993,20.8872743 21.4676339,21.3895089 C21.9698686,21.8917436 22.5758893,22.1428571 23.2857143,22.1428571 C23.9955393,22.1428571 24.60156,21.8917436 25.1037946,21.3895089 Z M31,18.4765625 L31,20.7064732 C31,20.7868308 30.9732146,20.8638389 30.9196429,20.9375 C30.8660712,21.0111611 30.7991075,21.0546874 30.71875,21.0680804 L28.8604911,21.3493304 C28.7332583,21.7109393 28.6026792,22.0156238 28.46875,22.2633929 C28.7031262,22.598216 29.0613815,23.0602649 29.5435268,23.6495536 C29.6104914,23.7299111 29.6439732,23.8136156 29.6439732,23.9006696 C29.6439732,23.9877236 29.6138396,24.0647318 29.5535714,24.1316964 C29.372767,24.3794655 29.0412971,24.7410691 28.5591518,25.2165179 C28.0770065,25.6919667 27.7622775,25.9296875 27.6149554,25.9296875 C27.5345978,25.9296875 27.4475451,25.8995539 27.3537946,25.8392857 L25.9676339,24.7544643 C25.6729896,24.9084829 25.3683051,25.0357138 25.0535714,25.1361607 C24.946428,26.0468796 24.8493308,26.6696412 24.7622768,27.0044643 C24.7154016,27.1919652 24.594867,27.2857143 24.4006696,27.2857143 L22.1707589,27.2857143 C22.0770085,27.2857143 21.994978,27.2572547 21.9246652,27.2003348 C21.8543523,27.1434149 21.8158482,27.071429 21.8091518,26.984375 L21.5279018,25.1361607 C21.1997751,25.0290173 20.8984389,24.9051346 20.6238839,24.7645089 L19.2075893,25.8392857 C19.1406247,25.8995539 19.0569201,25.9296875 18.9564732,25.9296875 C18.8627227,25.9296875 18.7790182,25.8928575 18.7053571,25.8191964 C17.8616029,25.0557998 17.3091531,24.4933054 17.0479911,24.1316964 C17.0011158,24.0647318 16.9776786,23.9877236 16.9776786,23.9006696 C16.9776786,23.8203121 17.004464,23.7433039 17.0580357,23.6696429 C17.1584826,23.5290172 17.3292399,23.3063631 17.5703125,23.0016741 C17.8113851,22.6969851 17.9921869,22.4609383 18.1127232,22.2935268 C17.9319187,21.9587037 17.7946433,21.6272338 17.7008929,21.2991071 L15.8627232,21.0279018 C15.7756692,21.0145089 15.7053574,20.9726566 15.6517857,20.9023438 C15.598214,20.8320309 15.5714286,20.7533486 15.5714286,20.6662946 L15.5714286,18.4363839 C15.5714286,18.3560264 15.598214,18.2790182 15.6517857,18.2053571 C15.7053574,18.1316961 15.7689728,18.0881697 15.8426339,18.0747768 L17.7109375,17.7935268 C17.804688,17.4854895 17.935267,17.1774569 18.1026786,16.8694196 C17.8348201,16.4877213 17.4765647,16.0256724 17.0279018,15.4832589 C16.9609372,15.4029014 16.9274554,15.322545 16.9274554,15.2421875 C16.9274554,15.1752229 16.957589,15.0982147 17.0178571,15.0111607 C17.1919652,14.7700881 17.521761,14.4101586 18.0072545,13.9313616 C18.492748,13.4525646 18.809151,13.2131696 18.9564732,13.2131696 C19.0435272,13.2131696 19.1305799,13.2466515 19.2176339,13.3136161 L20.6037946,14.3883929 C20.898439,14.2343742 21.2031234,14.1071434 21.5178571,14.0066964 C21.6250005,13.0959776 21.7220978,12.473216 21.8091518,12.1383929 C21.856027,11.9508919 21.9765615,11.8571429 22.1707589,11.8571429 L24.4006696,11.8571429 C24.4944201,11.8571429 24.5764505,11.8856024 24.6467634,11.9425223 C24.7170762,11.9994422 24.7555803,12.0714281 24.7622768,12.1584821 L25.0435268,14.0066964 C25.3716534,14.1138398 25.6729897,14.2377225 25.9475446,14.3783482 L27.3738839,13.3035714 C27.4341521,13.2433033 27.5145084,13.2131696 27.6149554,13.2131696 C27.7020094,13.2131696 27.7857139,13.2466515 27.8660714,13.3136161 C28.729915,14.1104951 29.2823649,14.6796858 29.5234375,15.0212054 C29.5703127,15.0747771 29.59375,15.148437 29.59375,15.2421875 C29.59375,15.322545 29.5669646,15.3995532 29.5133929,15.4732143 C29.4129459,15.61384 29.2421887,15.836494 29.0011161,16.141183 C28.7600434,16.4458721 28.5792417,16.6819188 28.4587054,16.8493304 C28.6328134,17.1841535 28.7700888,17.5122752 28.8705357,17.8337054 L30.7087054,18.1149554 C30.7957594,18.1283483 30.8660712,18.1702005 30.9196429,18.2405134 C30.9732146,18.3108262 31,18.3895085 31,18.4765625 Z"
    />
  </g>
</svg>
