<svg viewBox="0 0 20.3 17.2" xmlns="http://www.w3.org/2000/svg">
  <g stroke="none" fill="currentColor">
    <path d="M19.1 10.3c.7-1 1-2 1-3.1 0-1-.3-1.9-.8-2.8-.5-.9-1.2-1.6-2.1-2.3-.9-.6-2-1.1-3.2-1.5-1.2-.4-2.5-.6-3.9-.6-1.8 0-3.5.3-5 1S2.4 2.5 1.5 3.6C.6 4.7.1 5.9.1 7.2c0 1.3.4 2.5 1.3 3.6.6.7 1.3 1.3 2.1 1.8-.2-.5-.3-1-.3-1.5 0-2.2 1.7-3.9 3.9-3.9S11 8.9 11 11.1c0 1.3-.7 2.5-1.7 3.2h.8c.5 0 1.1 0 1.6-.1 1.5 1.3 3.2 2.2 5.1 2.7.4.1.8.2 1.3.2.1 0 .2 0 .3-.1.1-.1.2-.2.2-.3v-.1-.1-.1c0-.1-.1-.1-.1-.1l-.1-.1c0-.1-.1-.1-.1-.1-.1-.1-.2-.2-.3-.4s-.3-.3-.4-.4c-.1-.1-.2-.2-.3-.4s-.3-.4-.3-.6-.2-.4-.3-.7-.2-.6-.3-.8c1.1-.7 2.1-1.5 2.7-2.5z"/>
  </g>
  <circle cx="7.1" cy="11.1" r="3" fill="#0096ac"/>
</svg>
